<svg xmlns="http://www.w3.org/2000/svg" width="512" height="512" viewBox="0 0 512 512"><path fill="#008cdb" d="M323.313 113.753c-21.206-36.722-45-55.865-52.763-65.175C262.798 39.269 252.964 16 252.964 16c-2.062 24.197-20.682 28.959-49.65 63.104-28.969 34.134-55.35 102.412-55.35 167.062 0 64.659 24.31 107.071 44.484 136.556 15.534 22.697 34.396 36.487 45.815 47.072a91.652 91.652 0 0 1 2.362 2.25c.122.112.234.234.347.356a53.233 53.233 0 0 1 1.801 1.847c.281.3.516.6.787.899.375.422.76.854 1.097 1.275a26.826 26.826 0 0 1 1.585 2.156c7.762 11.896 6.722 52.247 6.722 52.247L266.417 496s1.556-53.278 4.659-58.969 14.99-14.484 21.722-20.69c6.722-6.206 15-16.031 33.104-39.31 18.103-23.278 34.134-73.453 37.753-120.15 3.627-46.696-19.135-106.406-40.342-143.128zM205.254 373.956c-20.652-30.188-41.766-68.981-41.766-127.79 0-63.122 25.988-126.77 51.656-157.031 9.872-11.635 18.338-19.528 25.801-26.484 4.274-3.984 8.362-7.801 12.019-11.812 0 0 7.763 90.328 7.763 190.678 0 100.341-7.763 163.125-7.763 163.125s1.425 18.037-12.835 6.075c-10.753-9.02-23.831-20.617-34.875-36.761z"/></svg>