<?xml version="1.0" encoding="utf-8"?>
<svg viewBox="0 0 500 500" xmlns="http://www.w3.org/2000/svg">
  <path d="M 315.69 107.753 C 294.484 71.031 270.69 51.888 262.927 42.578 C 255.175 33.269 245.341 10 245.341 10 C 243.279 34.197 224.659 38.959 195.691 73.104 C 166.722 107.238 140.341 175.516 140.341 240.166 C 140.341 304.825 164.651 347.237 184.825 376.722 C 200.359 399.419 219.221 413.209 230.64 423.794 C 231.441 424.53 232.228 425.28 233.002 426.044 C 233.124 426.156 233.236 426.278 233.349 426.4 C 233.964 427.001 234.565 427.617 235.15 428.247 C 235.431 428.547 235.666 428.847 235.937 429.146 C 236.312 429.568 236.697 430 237.034 430.421 C 237.598 431.113 238.127 431.832 238.619 432.577 C 246.381 444.473 245.341 484.824 245.341 484.824 L 258.794 490 C 258.794 490 260.35 436.722 263.453 431.031 C 266.556 425.34 278.443 416.547 285.175 410.341 C 291.897 404.135 300.175 394.31 318.279 371.031 C 336.382 347.753 352.413 297.578 356.032 250.881 C 359.659 204.185 336.897 144.475 315.69 107.753 Z M 197.631 367.956 C 176.979 337.768 155.865 298.975 155.865 240.166 C 155.865 177.044 181.853 113.396 207.521 83.135 C 217.393 71.5 225.859 63.607 233.322 56.651 C 237.596 52.667 241.684 48.85 245.341 44.839 C 245.341 44.839 253.104 135.167 253.104 235.517 C 253.104 335.858 245.341 398.642 245.341 398.642 C 245.341 398.642 246.766 416.679 232.506 404.717 C 221.753 395.697 208.675 384.1 197.631 367.956 Z" style="fill: #000000;"/>
</svg>
