<?xml version="1.0" encoding="utf-8"?>
<svg viewBox="0 0 500 500" xmlns="http://www.w3.org/2000/svg">
  <path d="M 54.131 425.099 C 54.131 430.775 58.328 426.302 60.441 424.573 C 65.064 420.791 69.895 416.697 74.112 412.479 C 87.62 398.971 95.196 379.526 101.455 362 C 107.112 346.16 108.701 329.305 113.023 313.099 C 118.463 292.699 121.969 273.065 124.065 252.103 C 126.172 231.033 129.849 210.762 129.849 189.53 L 129.324 189.005" style="fill: none; stroke: rgb(0, 0, 0);"/>
  <path d="M 256.573 418.263 C 248.153 412.65 241.923 403.494 235.014 396.179 C 227.336 388.049 218.459 379.496 212.404 370.414 C 207.265 362.706 204.543 353.765 201.361 345.174 C 196.68 332.533 191.483 319.779 189.793 306.263 C 187.917 291.257 187.424 276.119 186.112 261.042 C 184.389 241.217 178.853 221.109 180.854 201.098 C 181.672 192.92 185.061 185.326 185.061 176.911" style="fill: none; stroke: rgb(0, 0, 0);"/>
  <path d="M 122.488 185.85 C 110.618 185.85 98.449 190.572 88.309 196.366 C 85.893 197.747 80.459 202.639 78.845 204.253 C 78.398 204.7 78.143 206.357 77.793 205.831 C 74.739 201.25 70.577 198.053 66.225 194.789 C 64.932 193.819 63.93 190.802 62.544 191.634 C 51.665 198.161 40.265 203.946 28.366 208.46 C 25.972 209.368 21.459 210.364 18.901 209.512 C 15.64 208.425 13.683 193.398 13.642 193.211 C 11.32 182.595 9.159 171.987 8.384 161.136 C 8.219 158.818 12.591 149.568 12.591 149.568 C 13.127 119.549 4.208 119.225 21.53 117.493 C 23.63 117.283 25.767 117.365 27.84 116.967 C 30.346 116.485 32.78 115.67 35.201 114.863 C 38.043 113.916 41.205 113.487 43.614 111.708 C 48.701 107.954 53.113 103.312 57.286 98.563 C 58.274 97.438 58.555 95.822 58.863 94.356 C 61.522 81.729 53.029 81.398 47.295 72.798 C 44.225 68.193 44.935 62.764 45.718 57.549 C 47.077 48.488 59.004 44.272 65.699 41.248 C 67.829 40.286 76.644 34.627 79.37 35.99 C 79.698 36.154 79.274 41.798 79.37 41.774 C 90.054 39.103 100.053 32.976 110.394 29.154 C 110.761 29.018 134.212 19.505 138.788 21.793 C 142.227 23.512 141.857 28.844 143.521 32.309 C 149.297 44.342 156.648 57.551 171.389 55.445 C 180.825 54.097 189.909 50.511 199.258 48.61 C 220.781 44.232 243.017 40.052 264.986 38.619 C 273.848 38.041 285.986 37.803 294.958 38.619 C 298.773 38.966 299.164 40.363 299.164 43.351 C 299.164 44.754 297.91 48.185 299.164 47.558 C 312.48 40.901 330.422 38.885 344.911 37.567 C 350.497 37.06 357.25 34.202 361.737 37.567 C 362.779 38.349 362.818 48.567 362.789 49.661 C 362.48 61.409 361.425 74.619 352.273 83.314 C 345.575 89.676 347.103 88.916 340.704 91.201 C 339.661 91.574 338.563 91.803 337.55 92.253 C 336.972 92.51 335.34 93.305 335.972 93.305 C 342.569 93.305 349.706 99.175 354.376 103.295 C 367.89 115.22 386.185 129.862 380.667 150.094 C 379.64 153.86 373.75 156.512 371.202 157.455 C 359.993 161.607 345.194 159.795 333.343 159.558 C 328.608 159.464 323.879 159.185 319.146 159.033 C 318.27 159.004 317.136 158.413 316.517 159.033 C 314.706 160.844 321.871 171.541 322.301 172.178 C 340.826 199.623 326.7 175.301 340.704 201.098 C 341.325 202.241 348.189 213.595 347.014 214.77 C 344.784 217.001 340.695 215.012 337.55 214.77 C 325.808 213.867 314.02 213.47 302.319 212.141 C 279.253 209.52 259.432 205.038 237.643 197.943 C 232.135 196.15 227.292 190.071 221.343 189.53 C 211.774 188.66 202.059 189.005 192.422 189.005 C 192.422 189.005 192.948 187.427 192.948 187.427" style="fill: none; stroke: rgb(0, 0, 0);"/>
  <path d="M 301.794 269.455 C 293.465 269.455 283.133 269.514 278.132 275.765 C 276.333 278.013 277.862 283.384 279.709 285.23 C 285.281 290.802 290.936 292.922 298.639 292.066 C 306.274 291.217 314.052 285.559 310.207 277.869 C 309.717 276.889 303.897 272.61 303.897 272.61 C 303.897 272.61 303.371 267.878 303.371 267.878 Z" style="fill: none; stroke: rgb(0, 0, 0);"/>
  <path d="M 300.216 268.404 C 300.216 265.092 309.469 262.031 311.784 261.568 C 313.006 261.324 315.821 261.324 317.042 261.568 C 317.586 261.677 319.174 262.094 318.62 262.094 C 317.122 262.094 315.84 262.144 314.413 262.62 C 310.772 263.834 310.333 265.123 308.103 267.352 C 307.766 267.69 302.845 268.404 302.845 268.404" style="fill: none; stroke: rgb(0, 0, 0);"/>
</svg>