<?xml version="1.0" encoding="utf-8"?>
<svg viewBox="-124 -47 763 605" xmlns="http://www.w3.org/2000/svg">
  <path d="M 250 454.906 C 50.876 454.906 -110.547 346.797 -110.547 213.438 C -110.547 80.078 50.876 -28.031 250 -28.031 C 449.125 -28.031 610.547 80.078 610.547 213.438 C 610.547 346.797 449.125 454.906 250 454.906 Z M 305.188 66.375 C 153.836 66.375 31.141 140.283 31.141 231.453 C 31.141 322.623 153.836 396.531 305.188 396.531 C 456.539 396.531 568.234 346.002 568.234 231.453 C 568.234 116.94 456.539 66.375 305.188 66.375 Z" fill-rule="evenodd" style="fill: rgb(5, 37, 71);"/>
  <path d="M 438.547 345.969 C 438.547 345.969 460.369 352.554 473.047 358.969 C 477.446 361.195 485.057 365.637 490.547 371.469 C 495.925 377.181 498.547 382.969 498.547 382.969 L 584.547 527.969 L 445.547 528.031 L 380.547 405.969 C 380.547 405.969 367.237 383.1 359.047 376.469 C 352.215 370.938 349.302 368.969 342.547 368.969 C 337.845 368.969 309.521 368.969 309.521 368.969 L 309.547 527.943 L 186.547 527.995 L 186.547 121.907 L 433.547 121.907 C 433.547 121.907 546.047 123.936 546.047 230.969 C 546.047 338.002 438.547 345.969 438.547 345.969 Z M 385.047 209.993 L 310.584 209.945 L 310.547 278.995 L 385.047 278.971 C 385.047 278.971 419.547 278.864 419.547 243.846 C 419.547 208.124 385.047 209.993 385.047 209.993 Z" fill-rule="evenodd" style="fill: rgb(5, 37, 71);"/>
</svg>